HIERARCHY
ROOT RootJoint
{
    OFFSET   0.000000   0.000000   0.000000
    CHANNELS 6 Xposition Yposition Zposition Xrotation Yrotation Zrotation
    JOINT pelvis_lowerback
    {
        OFFSET   0.000000   0.093605   0.000000
        CHANNELS 3 Xrotation Yrotation Zrotation
        JOINT lowerback_torso
        {
            OFFSET   0.000000   0.100000   0.000000
            CHANNELS 3 Xrotation Yrotation Zrotation
            JOINT torso_head
            {
                OFFSET   0.000000   0.282350   0.000000
                CHANNELS 3 Xrotation Yrotation Zrotation
                End Site
                {
                    OFFSET   0.000000   0.192650   0.000000
                }
            }
            JOINT rTorso_Clavicle
            {
                OFFSET  -0.001000   0.157500   0.000000
                CHANNELS 3 Xrotation Yrotation Zrotation
                JOINT rShoulder
                {
                    OFFSET  -0.117647   0.000000   0.000000
                    CHANNELS 3 Xrotation Yrotation Zrotation
                    JOINT rElbow
                    {
                        OFFSET  -0.245000   0.000000   0.000000
                        CHANNELS 3 Xrotation Yrotation Zrotation
                        JOINT rWrist
                        {
                            OFFSET  -0.240000   0.000000   0.000000
                            CHANNELS 3 Xrotation Yrotation Zrotation
                            End Site
                            {
                                OFFSET  -0.116353  -0.002500   0.000000
                            }
                        }
                    }
                }
            }
            JOINT lTorso_Clavicle
            {
                OFFSET   0.001000   0.157500   0.000000
                CHANNELS 3 Xrotation Yrotation Zrotation
                JOINT lShoulder
                {
                    OFFSET   0.117647   0.000000   0.000000
                    CHANNELS 3 Xrotation Yrotation Zrotation
                    JOINT lElbow
                    {
                        OFFSET   0.245000   0.000000   0.000000
                        CHANNELS 3 Xrotation Yrotation Zrotation
                        JOINT lWrist
                        {
                            OFFSET   0.240000   0.000000   0.000000
                            CHANNELS 3 Xrotation Yrotation Zrotation
                            End Site
                            {
                                OFFSET   0.116353  -0.002500   0.000000
                            }
                        }
                    }
                }
            }
        }
    }
    JOINT rHip
    {
        OFFSET  -0.100000  -0.051395   0.000000
        CHANNELS 3 Xrotation Yrotation Zrotation
        JOINT rKnee
        {
            OFFSET   0.000000  -0.410000   0.000000
            CHANNELS 3 Xrotation Yrotation Zrotation
            JOINT rAnkle
            {
                OFFSET   0.000000  -0.390000   0.000000
                CHANNELS 3 Xrotation Yrotation Zrotation
                JOINT rToeJoint
                {
                    OFFSET   0.000000  -0.050000   0.130000
                    CHANNELS 3 Xrotation Yrotation Zrotation
                    End Site
                    {
                        OFFSET  -0.010000   0.002000   0.060000
                    }
                }
            }
        }
    }
    JOINT lHip
    {
        OFFSET   0.100000  -0.051395   0.000000
        CHANNELS 3 Xrotation Yrotation Zrotation
        JOINT lKnee
        {
            OFFSET   0.000000  -0.410000   0.000000
            CHANNELS 3 Xrotation Yrotation Zrotation
            JOINT lAnkle
            {
                OFFSET   0.000000  -0.390000   0.000000
                CHANNELS 3 Xrotation Yrotation Zrotation
                JOINT lToeJoint
                {
                    OFFSET   0.000000  -0.050000   0.130000
                    CHANNELS 3 Xrotation Yrotation Zrotation
                    End Site
                    {
                        OFFSET   0.010000   0.002000   0.060000
                    }
                }
            }
        }
    }
}
MOTION
Frames: 12
Frame Time:   0.008333
 -2.250845   0.929238   3.970753   2.814687 -78.767909   0.111216  10.010758  -6.000387   0.842596   7.523015  -3.638000   1.677065   2.268774  -9.090132   0.219907   5.022979   7.416842  -7.560402  22.809379  21.600761  51.146269  -0.023196  66.911454   0.047222   1.481074   5.324245   4.690773  11.550485  -2.308808   6.993688  33.690002 -22.986882 -44.596172   0.086924 -72.463184   0.155772   0.431215  -5.434639  -4.492357 -20.929611 -12.244925  -7.037778  40.888957  -0.019531  -0.052660  -4.742031 -13.600985  -3.900595  -2.235233   0.000227  -0.006054  -0.897840  17.977489  -1.775057   8.123385  -0.000729  -0.003994  -6.531189  34.751854   7.215671  -6.992540   0.009452   0.014327
 -2.250498   0.930553   3.970420   3.574433 -80.265135   0.992130   9.973871  -6.030324   0.813507   7.461644  -3.551089   1.587197   2.244349  -9.014418   0.197864   5.163996   7.308788  -7.773064  23.619950  21.430292  50.664173  -0.024200  67.687455   0.049076   1.426870   5.323020   4.629218  11.525533  -2.172363   7.128913  34.134526 -22.842430 -43.957716   0.083423 -73.322997   0.151806   0.381632  -5.454220  -4.573705 -20.832032 -12.603312  -7.431980  40.660179  -0.014360  -0.038429  -4.010431 -13.846372  -3.672511  -2.317029   0.000429  -0.003331  -1.196995  18.173399  -1.718819   8.665287  -0.002005  -0.009247  -5.822918  35.029685   7.107325  -8.171582   0.012254   0.023945
 -2.250216   0.931910   3.970073   4.485884 -81.770970   2.049222   9.938135  -6.026297   0.786893   7.402758  -3.457288   1.482560   2.226954  -8.936207   0.178331   5.313307   7.187946  -8.021276  24.402154  21.249551  50.197258  -0.025015  68.420369   0.050107   1.371629   5.390739   4.616929  11.482956  -2.044465   7.270506  34.530532 -22.703175 -43.357927   0.079347 -74.142285   0.146525   0.327613  -5.563662  -4.586070 -20.738505 -12.902877  -7.856266  40.349112  -0.009964  -0.025744  -3.324499 -14.069091  -3.454545  -2.357951   0.000468  -0.001921  -1.496296  18.344002  -1.663992   9.264940  -0.003352  -0.014257  -5.039847  35.269405   6.940243  -9.476301   0.014777   0.034078
 -2.250038   0.933241   3.969667   5.650988 -83.285546   3.356404   9.901278  -6.012115   0.771855   7.346092  -3.363346   1.379950   2.212597  -8.861513   0.160624   5.455491   7.067855  -8.280245  25.139628  21.064855  49.749525  -0.025970  69.102995   0.050927   1.319550   5.456721   4.611379  11.440504  -1.920491   7.409159  34.896398 -22.567433 -42.799456   0.075406 -74.910729   0.140732   0.273163  -5.700230  -4.569304 -20.663745 -13.173516  -8.278634  40.036030  -0.006555  -0.015574  -2.684263 -14.274474  -3.248119  -2.397097   0.000492  -0.000835  -1.770557  18.507498  -1.595074   9.866505  -0.004584  -0.018346  -4.243672  35.496149   6.754510 -10.801247   0.016568   0.042903
 -2.249974   0.934512   3.969173   7.311745 -84.799420   5.148872   9.861154  -5.997092   0.766332   7.290254  -3.273553   1.285904   2.199870  -8.791455   0.145420   5.587926   6.951539  -8.536765  25.829716  20.881252  49.325878  -0.026994  69.738923   0.051630   1.270580   5.512796   4.597962  11.401800  -1.800882   7.542733  35.237827 -22.435521 -42.279472   0.071674 -75.628624   0.134674   0.220282  -5.838299  -4.546538 -20.607917 -13.422460  -8.688192  39.737365  -0.003980  -0.007702  -2.086094 -14.464134  -3.052636  -2.434834   0.000508  -0.000001  -2.015152  18.665885  -1.509319  10.455651  -0.005656  -0.021478  -3.461342  35.713462   6.564412 -12.104467   0.017609   0.049951
 -2.250023   0.935705   3.968574  10.095551 -86.302006   8.053943   9.816583  -5.984891   0.767341   7.234014  -3.190255   1.201759   2.187980  -8.726094   0.132536   5.710989   6.839881  -8.783734  26.473677  20.702146  48.928996  -0.027963  70.331919   0.052162   1.224107   5.562071   4.576683  11.366652  -1.686936   7.670508  35.556630 -22.308134 -41.794917   0.068087 -76.298561   0.128433   0.169554  -5.970392  -4.524684 -20.569372 -13.652257  -9.081872  39.455708  -0.002059  -0.001728  -1.527098 -14.639348  -2.867618  -2.470856   0.000516   0.000622  -2.229641  18.819288  -1.409222  11.027860  -0.006558  -0.023753  -2.705654  35.922227   6.376564 -13.367316   0.018018   0.055201
 -2.250179   0.936808   3.967859  16.253191 -87.775974  14.324068   9.767154  -5.977028   0.772564   7.176602  -3.114612   1.127122   2.176456  -8.665223   0.121583   5.825585   6.733188  -9.017454  27.073938  20.529651  48.559645  -0.028782  70.885256   0.052458   1.179687   5.607604   4.550906  11.334096  -1.579747   7.792003  35.853630 -22.185981 -41.343129   0.064588 -76.923658   0.122066   0.121049  -6.095308  -4.504552 -20.546303 -13.864411  -9.458867  39.190560  -0.000638   0.002725  -1.004714 -14.801267  -2.692631  -2.505030   0.000518   0.001077  -2.414875  18.967648  -1.298363  11.581735  -0.007298  -0.025301  -1.983025  36.122871   6.194474 -14.580984   0.017943   0.058802
 -2.250272   0.937333   3.966775  40.718072 -89.099882  38.867082   9.758513  -5.910197   0.719609   7.112569  -3.012597   1.120229   2.176965  -8.534376   0.139807   5.983559   6.599847  -9.223661  27.687229  20.251820  48.129588  -0.032236  71.664629   0.056577   1.150916   5.591883   4.529448  11.276932  -1.518723   7.945046  36.065632 -22.009571 -40.917783   0.060116 -77.609194   0.115782   0.090486  -6.189187  -4.492442 -20.352559 -13.774454  -9.707690  38.555386   0.000789   0.010124  -0.191512 -14.712850  -2.304048  -2.607378   0.000794   0.002062  -2.883864  18.665451  -0.900844  13.041109  -0.014558  -0.041311  -2.197537  35.560100   6.248316 -14.277234   0.013564   0.040432
 -2.250385   0.937271   3.965643 146.566771 -88.996182 144.829066   9.741941  -5.796503   0.624142   7.045037  -2.885454   1.078859   2.180510  -8.405420   0.153985   6.126607   6.477436  -9.441421  28.256972  19.984550  47.718620  -0.035582  72.405183   0.059918   1.119140   5.654210   4.509246  11.214938  -1.455527   8.099020  36.255956 -21.836153 -40.517470   0.056175 -78.254860   0.109594   0.058447  -6.315756  -4.423678 -20.197681 -13.638028 -10.000621  37.884276   0.001853   0.016753   0.565635 -14.619687  -1.941859  -2.685960   0.000929   0.002602  -3.308724  18.303830  -0.485748  14.471406  -0.022106  -0.054677  -2.434673  34.965154   6.291197 -14.454050   0.011410   0.036389
 -2.250548   0.936508   3.964495 167.733992 -87.539583 166.103439   9.716051  -5.664762   0.532720   6.971954  -2.745316   1.020883   2.183735  -8.283809   0.164169   6.253163   6.367798  -9.670719  28.784324  19.726255  47.322982  -0.038917  73.099954   0.062868   1.087243   5.741134   4.475026  11.158850  -1.387984   8.244852  36.433779 -21.671634 -40.148858   0.053121 -78.860331   0.104055   0.026085  -6.455099  -4.345791 -20.084399 -13.500391 -10.305144  37.234959   0.002569   0.022079   1.269919 -14.528224  -1.605119  -2.761266   0.001022   0.003030  -3.683007  17.940736  -0.056269  15.846412  -0.028860  -0.064604  -2.516925  34.382474   6.257093 -13.373997   0.004984   0.004156
 -2.250701   0.935340   3.963348 172.823171 -85.967538 171.322261   9.690361  -5.528709   0.420005   6.896489  -2.602725   0.947139   2.184113  -8.170113   0.172718   6.361353   6.276653  -9.879676  29.264838  19.482901  46.951087  -0.041449  73.746050   0.064896   1.058199   5.816471   4.410794  11.104075  -1.328039   8.366147  36.595318 -21.518433 -39.807936   0.051310 -79.420464   0.099507  -0.003352  -6.570053  -4.258205 -20.017099 -13.358605 -10.639382  36.602682   0.003046   0.026318   1.926172 -14.439423  -1.291839  -2.826209   0.001059   0.003266  -3.975815  17.573037   0.264853  17.165833  -0.033857  -0.071924  -2.864766  33.795696   6.327152 -15.058811   0.010224   0.042128
 -2.250832   0.933799   3.962107 174.893177 -84.394001 173.514325   9.665853  -5.403775   0.307482   6.822744  -2.469291   0.873205   2.183686  -8.064339   0.180704   6.457421   6.197077 -10.069982  29.705572  19.256444  46.607338  -0.043109  74.349909   0.065998   1.030335   5.890682   4.335074  11.050725  -1.276804   8.472808  36.741754 -21.378324 -39.492217   0.050507 -79.942910   0.095890  -0.031133  -6.675456  -4.173406 -19.972708 -13.224074 -10.961699  35.997174   0.003288   0.029285   2.537194 -14.353508  -1.000059  -2.886171   0.001063   0.003385  -4.230876  17.232340   0.557765  18.394391  -0.037275  -0.075739  -3.226767  33.261485   6.409492 -16.988221   0.012808   0.076656
